<?xml version="1.0" encoding="utf-8"?>
<!-- Generator: Adobe Illustrator 25.4.1, SVG Export Plug-In . SVG Version: 6.00 Build 0)  -->
<svg version="1.1" id="圖層_1" xmlns="http://www.w3.org/2000/svg" xmlns:xlink="http://www.w3.org/1999/xlink" x="0px" y="0px"
	 viewBox="0 0 97 23" style="enable-background:new 0 0 97 23;" xml:space="preserve">
<style type="text/css">
	.st0{fill:#FFFFFF;}
</style>
<g>
	<path class="st0" d="M0.99,19.67c-0.26-0.03-0.49-0.13-0.68-0.29L0.3,19.37l-0.01-0.01c-0.08-0.1-0.14-0.2-0.19-0.31
		S0.02,18.82,0,18.69v-0.01v-0.01L0.12,5.21C0.07,4.15,0.3,3.55,0.83,3.44C1.27,3.35,1.76,3.3,2.3,3.3c0.27,0,0.54,0.01,0.81,0.02
		s0.54,0.03,0.82,0.06C4.49,3.45,5.05,3.55,5.59,3.7C5.7,3.73,5.82,3.77,5.95,3.81s0.23,0.1,0.36,0.17c0.11,0.06,0.23,0.12,0.34,0.2
		c0.11,0.08,0.23,0.16,0.34,0.23C7.1,4.5,7.21,4.59,7.34,4.7C7.91,5.2,8.3,5.66,8.52,6.06c0.06,0.1,0.1,0.21,0.14,0.32
		c0.04,0.11,0.08,0.23,0.12,0.37c0.03,0.13,0.06,0.27,0.08,0.41C8.89,7.3,8.9,7.46,8.92,7.62C8.94,7.68,8.94,7.75,8.94,7.8
		c0,0.07,0.01,0.12,0.01,0.18c0,0.07,0,0.12,0,0.18s0,0.11,0,0.18c0,0.07,0,0.11,0,0.18c0,0.07,0,0.11,0,0.17c0,0.06,0,0.11,0,0.17
		c0,0.06,0,0.11-0.01,0.17C8.92,9.07,8.92,9.13,8.92,9.17c0,0.06-0.01,0.1-0.01,0.14c-0.07,0.51-0.19,0.98-0.38,1.42
		c-0.18,0.44-0.67,1.02-1.46,1.73c-0.77,0.7-1.59,1.22-2.47,1.54c-0.81,0.3-1.66,0.41-2.56,0.33v4.47v0.06l-0.02,0.04l-0.2,0.41
		l-0.02,0.04l-0.04,0.03c-0.21,0.16-0.46,0.26-0.71,0.29H1.01H0.99V19.67z M4.8,11.72c0.37-0.18,0.71-0.42,1.03-0.7
		c0.11-0.09,0.21-0.19,0.3-0.29c0.09-0.1,0.18-0.21,0.27-0.31c0.08-0.11,0.16-0.22,0.22-0.33C6.69,9.97,6.75,9.85,6.8,9.73
		c0.04-0.13,0.09-0.26,0.11-0.39C6.94,9.2,6.96,9.06,6.97,8.93c0.02-0.44-0.01-0.9-0.1-1.36C6.78,7.13,6.46,6.69,5.89,6.25
		C5.3,5.8,4.72,5.52,4.16,5.4c-0.54-0.11-1.21-0.12-2-0.04l-0.08,6.98c0.92-0.02,1.52-0.09,1.81-0.2C4.2,12.02,4.51,11.88,4.8,11.72
		z"/>
	<path class="st0" d="M14.84,19.52c-0.26-0.04-0.51-0.1-0.74-0.18c-0.24-0.08-0.48-0.17-0.71-0.28c-0.24-0.11-0.49-0.27-0.73-0.47
		c-0.24-0.2-0.49-0.44-0.74-0.73c-0.51-0.59-0.87-1.34-1.07-2.28c-0.19-0.91-0.27-1.74-0.24-2.5c0.02-0.77,0.12-1.41,0.28-1.94
		c0.16-0.54,0.44-1.03,0.86-1.48c0.41-0.43,0.89-0.78,1.42-1.03c0.54-0.26,1.12-0.36,1.72-0.3c0.14,0.01,0.28,0.03,0.41,0.06
		c0.13,0.02,0.27,0.04,0.39,0.07c0.12,0.02,0.24,0.06,0.36,0.09c0.11,0.03,0.22,0.07,0.33,0.11c0.43,0.17,0.94,0.59,1.54,1.28
		c0.6,0.69,0.97,1.47,1.11,2.33c0.13,0.83,0.19,1.42,0.19,1.78c0,0.44-0.14,0.7-0.43,0.79c-0.21,0.07-2.2,0.14-5.98,0.23
		c0.08,0.33,0.17,0.63,0.28,0.91c0.12,0.32,0.31,0.6,0.57,0.83c0.13,0.12,0.28,0.23,0.42,0.32s0.3,0.18,0.46,0.24
		c0.3,0.13,0.66,0.18,1.06,0.16c0.2-0.01,0.39-0.06,0.58-0.12c0.19-0.07,0.37-0.16,0.54-0.27c0.4-0.27,0.82-0.46,1.28-0.56
		l0.07-0.02l0.07,0.03l0.41,0.2l0.04,0.02l0.03,0.04c0.1,0.13,0.17,0.28,0.2,0.43c0.04,0.16,0.06,0.32,0.04,0.5v0.04l-0.02,0.03
		l-0.2,0.41l-0.02,0.04l-0.04,0.03c-0.32,0.26-0.63,0.46-0.94,0.62c-0.31,0.17-0.61,0.28-0.9,0.34c-0.29,0.08-0.58,0.13-0.89,0.17
		c-0.31,0.03-0.62,0.06-0.94,0.06h-0.03V19.52z M17.15,12.88c-0.02-0.22-0.04-0.42-0.08-0.6s-0.08-0.34-0.13-0.49
		c-0.11-0.33-0.3-0.62-0.56-0.86c-0.09-0.08-0.18-0.16-0.29-0.22c-0.1-0.07-0.21-0.12-0.32-0.18c-0.11-0.06-0.23-0.1-0.36-0.13
		c-0.08-0.02-0.14-0.03-0.22-0.06s-0.14-0.03-0.22-0.03c-0.08-0.01-0.14-0.01-0.22-0.01s-0.14,0-0.21,0.01
		c-0.07,0.01-0.14,0.02-0.22,0.04c-0.36,0.07-0.67,0.24-0.93,0.53c-0.27,0.29-0.47,0.61-0.59,0.96c-0.02,0.08-0.06,0.17-0.08,0.26
		c-0.02,0.09-0.04,0.19-0.06,0.29c-0.02,0.1-0.03,0.21-0.06,0.32c-0.02,0.11-0.03,0.23-0.03,0.36L17.15,12.88z"/>
	<path class="st0" d="M25.75,19.6c-0.18-0.02-0.37-0.07-0.53-0.14c-0.18-0.08-0.34-0.18-0.52-0.3c-0.17-0.12-0.33-0.28-0.51-0.46
		c-0.52-0.54-0.86-1.28-1-2.19c-0.13-0.86-0.23-2.32-0.31-4.39l-1.3,0.07h-0.06l-0.06-0.02l-0.41-0.2l-0.03-0.02l-0.03-0.03
		c-0.23-0.26-0.33-0.57-0.29-0.92v-0.04l0.02-0.03l0.2-0.41l0.02-0.04l0.06-0.03c0.3-0.22,0.67-0.32,1.08-0.3
		c0.29,0.01,0.58,0.01,0.86-0.01c-0.04-1.57,0.03-2.6,0.22-3.11l0.02-0.06l0.04-0.03c0.23-0.2,0.52-0.29,0.88-0.26h0.04l0.03,0.02
		l0.41,0.2l0.04,0.02l0.03,0.06c0.21,0.3,0.3,0.67,0.24,1.08l0.04,1.98l3.11-0.08h0.04l0.06,0.02l0.41,0.2l0.04,0.02l0.02,0.03
		c0.2,0.23,0.29,0.52,0.26,0.88v0.04l-0.02,0.03l-0.2,0.41l-0.04,0.07l-0.08,0.03c-0.29,0.1-0.6,0.18-0.92,0.22
		c-0.32,0.04-0.66,0.07-0.99,0.06c-0.2-0.01-0.39-0.01-0.59,0s-0.39,0.02-0.59,0.03c-0.19,0.01-0.38,0.03-0.57,0.06
		c0.08,1.87,0.14,3.11,0.21,3.73c0.07,0.62,0.18,1.09,0.37,1.4c0.08,0.12,0.19,0.2,0.33,0.24c0.14,0.04,0.36,0.04,0.64,0
		c0.3-0.06,0.6-0.12,0.89-0.2s0.6-0.17,0.9-0.28l0.08-0.03l0.08,0.04l0.41,0.2l0.04,0.02l0.02,0.03c0.2,0.23,0.29,0.53,0.26,0.9
		v0.04L29.1,18.2l-0.29,0.49l-0.02,0.04l-0.03,0.02c-0.42,0.31-0.89,0.53-1.39,0.68C26.85,19.56,26.33,19.62,25.75,19.6L25.75,19.6z
		"/>
	<path class="st0" d="M39.31,19.43c-0.61-0.02-1.14-0.2-1.6-0.53l-0.02-0.01l-0.02-0.02c-0.23-0.26-0.33-0.57-0.3-0.92v-0.03
		l0.02-0.04l0.2-0.42l0.02-0.03l0.03-0.03c0.23-0.2,0.52-0.29,0.88-0.26h0.04l0.03,0.02c0.51,0.27,1.02,0.37,1.54,0.31
		c0.54-0.06,1.01-0.13,1.38-0.22c0.33-0.09,0.7-0.33,1.08-0.76c0.37-0.41,0.52-0.88,0.46-1.43c-0.02-0.28-0.11-0.53-0.26-0.76
		s-0.34-0.43-0.6-0.62c-0.54-0.4-1.14-0.76-1.8-1.06c-0.34-0.17-0.67-0.34-0.98-0.54c-0.31-0.2-0.59-0.43-0.86-0.68
		c-0.27-0.26-0.49-0.52-0.68-0.8c-0.19-0.28-0.33-0.57-0.44-0.87c-0.21-0.6-0.3-1.21-0.28-1.86s0.17-1.21,0.42-1.71
		c0.26-0.49,0.6-0.94,1.01-1.36C39.03,4.37,39.53,4.1,40.09,4c0.54-0.1,1.09-0.11,1.62-0.04c0.54,0.08,1.02,0.24,1.46,0.5l0.03,0.01
		l0.02,0.03c0.26,0.29,0.37,0.63,0.33,1.04v0.04l-0.02,0.04l-0.19,0.4l-0.02,0.04L43.29,6.1c-0.23,0.2-0.52,0.29-0.88,0.26h-0.03
		l-0.03-0.02C42,6.19,41.69,6.08,41.42,6.03s-0.49-0.07-0.67-0.03c-0.36,0.06-0.64,0.2-0.88,0.41c-0.23,0.23-0.42,0.51-0.56,0.83
		c-0.13,0.31-0.19,0.63-0.17,0.98c0.01,0.17,0.03,0.33,0.07,0.5c0.03,0.17,0.08,0.32,0.14,0.48c0.11,0.29,0.37,0.61,0.78,0.96
		c0.21,0.17,0.46,0.33,0.72,0.49c0.28,0.16,0.58,0.31,0.92,0.46c0.71,0.29,1.37,0.72,1.97,1.3c0.61,0.58,0.99,1.2,1.13,1.84
		c0.13,0.63,0.17,1.21,0.1,1.76c-0.08,0.52-0.18,0.97-0.32,1.3c-0.04,0.12-0.12,0.24-0.21,0.37c-0.1,0.12-0.2,0.26-0.33,0.38
		c-0.12,0.12-0.28,0.26-0.44,0.4c-0.51,0.41-1.17,0.69-1.96,0.83C40.97,19.41,40.16,19.46,39.31,19.43z"/>
	<path class="st0" d="M50.88,9.45C50.4,9.3,50,9.02,49.68,8.6c-0.14-0.19-0.29-0.38-0.42-0.58C49.12,7.84,49,7.64,48.88,7.44
		c-0.12-0.2-0.22-0.38-0.29-0.54c-0.07-0.17-0.11-0.32-0.12-0.47c-0.01-0.11,0.01-0.21,0.03-0.31c0.02-0.1,0.09-0.19,0.14-0.28
		c0.06-0.09,0.13-0.19,0.23-0.28c0.16-0.16,0.33-0.24,0.54-0.28c0.21-0.03,0.42,0,0.66,0.08c0.12,0.04,0.24,0.11,0.36,0.19
		c0.12,0.08,0.23,0.17,0.33,0.27c0.1,0.1,0.2,0.21,0.29,0.33c0.38-0.5,0.8-0.72,1.29-0.67c0.27,0.03,0.49,0.09,0.67,0.16
		s0.32,0.17,0.41,0.3c0.19,0.26,0.21,0.57,0.08,0.94C53.47,6.94,53.45,7,53.43,7.07s-0.06,0.13-0.09,0.19
		c-0.03,0.06-0.07,0.12-0.11,0.19c-0.03,0.07-0.08,0.12-0.12,0.19c-0.04,0.07-0.09,0.12-0.13,0.18c-0.23,0.29-0.54,0.61-0.93,0.96
		c-0.2,0.18-0.38,0.32-0.54,0.43S51.16,9.39,51,9.44l-0.06,0.02L50.88,9.45z M51.31,19.17l-0.42-0.2l-0.09-0.04l-0.02-0.11
		c-0.19-1.23-0.32-2.49-0.39-3.73c-0.07-1.24-0.11-2.5-0.14-3.75v-0.01v-0.01c0.01-0.03,0.01-0.07,0.02-0.1
		c0.01-0.03,0.01-0.06,0.02-0.09c0.01-0.03,0.01-0.06,0.02-0.09c0.01-0.03,0.02-0.06,0.03-0.09c0.01-0.02,0.02-0.06,0.04-0.08
		c0.02-0.02,0.03-0.06,0.04-0.08c0.01-0.02,0.03-0.06,0.06-0.08c0.02-0.02,0.04-0.04,0.06-0.08l0.01-0.01l0.01-0.01
		c0.23-0.2,0.53-0.29,0.9-0.26h0.04l0.02,0.01l0.41,0.2l0.1,0.06l0.01,0.11c0.13,1.24,0.24,2.51,0.32,3.78
		c0.08,1.28,0.13,2.56,0.16,3.86v0.06l-0.02,0.04l-0.2,0.41l-0.02,0.04l-0.03,0.02c-0.23,0.2-0.52,0.29-0.88,0.26h-0.03L51.31,19.17
		z"/>
	<path class="st0" d="M62.32,19.6c-0.18-0.02-0.37-0.07-0.53-0.14s-0.34-0.18-0.52-0.3c-0.17-0.12-0.33-0.28-0.51-0.46
		c-0.52-0.54-0.86-1.28-1-2.19c-0.13-0.86-0.23-2.32-0.31-4.39l-1.3,0.07h-0.04l-0.06-0.02l-0.41-0.2l-0.03-0.02l-0.03-0.03
		c-0.23-0.26-0.33-0.57-0.3-0.92v-0.04l0.02-0.03l0.2-0.41l0.02-0.04l0.06-0.03c0.3-0.22,0.67-0.32,1.08-0.3
		c0.29,0.01,0.58,0.01,0.86-0.01c-0.04-1.57,0.03-2.6,0.22-3.11l0.02-0.06l0.04-0.03c0.23-0.2,0.52-0.29,0.88-0.26h0.04l0.03,0.02
		l0.41,0.2l0.04,0.02l0.03,0.06c0.21,0.3,0.3,0.67,0.24,1.08l0.04,1.98l3.11-0.08h0.04l0.06,0.02l0.41,0.2l0.04,0.02l0.02,0.03
		c0.2,0.23,0.29,0.52,0.26,0.88v0.04l-0.02,0.03l-0.2,0.41l-0.04,0.07l-0.08,0.03c-0.29,0.1-0.6,0.18-0.92,0.22
		c-0.32,0.04-0.66,0.07-0.99,0.06c-0.2-0.01-0.39-0.01-0.59,0s-0.39,0.02-0.59,0.03c-0.19,0.01-0.38,0.03-0.57,0.06
		c0.08,1.87,0.14,3.11,0.21,3.73c0.06,0.62,0.18,1.09,0.37,1.4c0.08,0.12,0.19,0.2,0.33,0.24s0.36,0.04,0.64,0
		c0.3-0.06,0.6-0.12,0.89-0.2c0.3-0.08,0.6-0.17,0.9-0.28l0.08-0.03l0.08,0.04l0.41,0.2l0.04,0.02l0.02,0.03
		c0.2,0.23,0.29,0.53,0.26,0.9v0.04l-0.03,0.04l-0.29,0.49l-0.02,0.04l-0.03,0.02c-0.42,0.31-0.89,0.53-1.39,0.68
		C63.42,19.56,62.88,19.62,62.32,19.6L62.32,19.6z"/>
	<path class="st0" d="M72.72,19.6c-0.18-0.02-0.37-0.07-0.53-0.14c-0.17-0.08-0.34-0.18-0.52-0.3c-0.17-0.12-0.33-0.28-0.51-0.46
		c-0.52-0.54-0.86-1.28-1-2.19c-0.13-0.86-0.23-2.32-0.31-4.39l-1.3,0.07h-0.06l-0.06-0.02l-0.41-0.2l-0.03-0.02l-0.03-0.03
		c-0.23-0.26-0.33-0.57-0.3-0.92v-0.04l0.02-0.03l0.2-0.41l0.02-0.04l0.06-0.03c0.3-0.22,0.67-0.32,1.08-0.3
		c0.29,0.01,0.58,0.01,0.86-0.01c-0.04-1.57,0.03-2.6,0.22-3.11l0.02-0.06l0.04-0.03c0.23-0.2,0.52-0.29,0.88-0.26h0.04l0.03,0.02
		l0.41,0.2l0.04,0.02l0.03,0.06c0.21,0.3,0.3,0.67,0.24,1.08l0.04,1.98l3.11-0.08h0.04l0.06,0.02l0.41,0.2l0.01,0.04l0.02,0.03
		c0.2,0.23,0.29,0.52,0.26,0.88v0.04l-0.02,0.03l-0.2,0.41l-0.04,0.07l-0.08,0.03c-0.29,0.1-0.6,0.18-0.92,0.22
		s-0.66,0.07-0.99,0.06c-0.2-0.01-0.39-0.01-0.59,0c-0.2,0.01-0.39,0.02-0.59,0.03c-0.19,0.01-0.38,0.03-0.57,0.06
		c0.08,1.87,0.14,3.11,0.21,3.73c0.06,0.62,0.18,1.09,0.37,1.4c0.08,0.12,0.19,0.2,0.33,0.24s0.36,0.04,0.64,0
		c0.3-0.06,0.6-0.12,0.89-0.2c0.3-0.08,0.6-0.17,0.9-0.28l0.08-0.03l0.08,0.04l0.41,0.2l0.04,0.02l0.02,0.03
		c0.2,0.23,0.29,0.53,0.26,0.9v0.02l-0.03,0.04l-0.29,0.49l-0.02,0.04l-0.03,0.02c-0.42,0.31-0.89,0.53-1.39,0.68
		C73.82,19.56,73.29,19.62,72.72,19.6L72.72,19.6z"/>
	<path class="st0" d="M82.6,19.52c-0.26-0.04-0.51-0.1-0.74-0.18c-0.24-0.08-0.48-0.17-0.7-0.28c-0.24-0.11-0.49-0.27-0.73-0.47
		c-0.24-0.2-0.49-0.44-0.74-0.73c-0.51-0.59-0.87-1.34-1.07-2.28c-0.19-0.91-0.27-1.74-0.24-2.5c0.02-0.77,0.12-1.41,0.28-1.94
		c0.16-0.54,0.44-1.03,0.86-1.48c0.41-0.43,0.89-0.78,1.42-1.03c0.54-0.26,1.12-0.36,1.72-0.3c0.14,0.01,0.28,0.03,0.42,0.06
		c0.13,0.02,0.27,0.04,0.39,0.07c0.12,0.02,0.24,0.06,0.36,0.09s0.22,0.07,0.33,0.11c0.43,0.17,0.94,0.59,1.54,1.28
		c0.6,0.69,0.97,1.47,1.11,2.33c0.13,0.83,0.19,1.42,0.19,1.78c0,0.44-0.14,0.7-0.43,0.79c-0.21,0.07-2.2,0.14-5.98,0.23
		c0.08,0.33,0.17,0.63,0.28,0.91c0.12,0.32,0.31,0.6,0.57,0.83c0.13,0.12,0.28,0.23,0.42,0.32c0.14,0.09,0.3,0.18,0.46,0.24
		c0.3,0.13,0.66,0.18,1.06,0.16c0.2-0.01,0.39-0.06,0.58-0.12c0.19-0.07,0.37-0.16,0.54-0.27c0.4-0.27,0.82-0.46,1.28-0.56
		l0.07-0.02l0.07,0.03l0.41,0.2l0.04,0.02l0.03,0.04c0.09,0.13,0.17,0.28,0.2,0.43c0.04,0.16,0.06,0.32,0.04,0.5v0.04l-0.02,0.03
		l-0.2,0.41l-0.02,0.04l-0.04,0.03c-0.32,0.26-0.63,0.46-0.93,0.62c-0.31,0.17-0.61,0.28-0.9,0.34c-0.29,0.08-0.58,0.13-0.89,0.17
		c-0.31,0.03-0.62,0.06-0.94,0.06H82.6V19.52z M84.91,12.88c-0.02-0.22-0.04-0.42-0.08-0.6s-0.08-0.34-0.13-0.49
		c-0.11-0.33-0.3-0.62-0.56-0.86c-0.09-0.08-0.18-0.16-0.29-0.22c-0.1-0.07-0.21-0.12-0.32-0.18c-0.11-0.06-0.23-0.1-0.37-0.13
		c-0.08-0.02-0.14-0.03-0.22-0.06c-0.08-0.02-0.14-0.03-0.22-0.03c-0.08-0.01-0.14-0.01-0.22-0.01c-0.07,0-0.14,0-0.21,0.01
		c-0.07,0.01-0.14,0.02-0.22,0.04c-0.36,0.07-0.67,0.24-0.93,0.53c-0.27,0.29-0.47,0.61-0.59,0.96c-0.02,0.08-0.06,0.17-0.08,0.26
		c-0.02,0.09-0.04,0.19-0.06,0.29c-0.02,0.1-0.03,0.21-0.06,0.32c-0.01,0.11-0.03,0.23-0.03,0.36L84.91,12.88z"/>
	<path class="st0" d="M90.95,19.42l-0.41-0.2l-0.08-0.04l-0.02-0.09c-0.36-1.49-0.59-3.01-0.7-4.57c-0.11-1.53-0.23-3.07-0.37-4.58
		V9.91V9.88c0.03-0.26,0.13-0.49,0.29-0.68l0.01-0.01l0.01-0.01c0.23-0.2,0.52-0.29,0.88-0.26h0.04l0.03,0.02l0.41,0.2l0.08,0.04
		l0.02,0.09c0.17,0.63,0.28,1.29,0.31,1.97c0.01,0.23,0.03,0.47,0.04,0.7c0.02,0.23,0.03,0.47,0.04,0.7
		c0.11-0.13,0.22-0.27,0.32-0.38c0.11-0.12,0.22-0.23,0.33-0.36c0.39-0.36,0.79-0.62,1.23-0.8c0.44-0.19,0.89-0.29,1.36-0.3
		c0.44-0.01,0.9-0.03,1.36-0.07h0.06l0.06,0.02l0.41,0.2l0.04,0.02l0.02,0.03c0.2,0.23,0.29,0.52,0.26,0.88v0.04l-0.02,0.03
		l-0.2,0.41l-0.04,0.09l-0.1,0.02c-0.26,0.03-0.52,0.07-0.8,0.1c-0.28,0.03-0.57,0.07-0.87,0.1c-0.54,0.06-1.01,0.32-1.38,0.79
		c-0.41,0.5-0.71,0.98-0.92,1.42c-0.21,0.44-0.36,0.89-0.42,1.34c-0.08,0.46-0.1,1.24-0.04,2.36v0.06l-0.02,0.06l-0.2,0.41
		l-0.02,0.04l-0.03,0.02c-0.23,0.2-0.52,0.29-0.88,0.26h-0.04L90.95,19.42z"/>
</g>
</svg>
