<?xml version="1.0" encoding="utf-8"?>
<!-- Generator: Adobe Illustrator 25.4.1, SVG Export Plug-In . SVG Version: 6.00 Build 0)  -->
<svg version="1.1" id="圖層_1" xmlns="http://www.w3.org/2000/svg" xmlns:xlink="http://www.w3.org/1999/xlink" x="0px" y="0px"
	 viewBox="0 0 64 64" style="enable-background:new 0 0 64 64;" xml:space="preserve">
<style type="text/css">
	.st0{fill:#AFAFAF;}
</style>
<g id="LErdgr_00000018196627108512822530000014331062803896898442_">
	<g>
		<path class="st0" d="M64,30.12c0,1.25,0,2.5,0,3.75c-0.04,0.18-0.09,0.36-0.1,0.54c-0.37,5.08-1.88,9.8-4.54,14.12
			c-1,1.64-2.2,3.16-3.31,4.73c-0.07-0.03-0.14-0.05-0.21-0.08c-0.98-4.07-2.84-7.68-5.63-10.79c-2.81-3.13-6.2-5.4-10.27-6.83
			c2.59-1.72,4.51-3.92,5.72-6.7c1.21-2.77,1.53-5.64,0.98-8.61c-0.55-2.99-1.92-5.56-4.03-7.75c-5.36-5.56-14.66-5.93-20.34-0.84
			c-2.99,2.68-4.8,5.98-5.11,9.97c-0.45,5.92,2.01,10.51,6.8,13.92c-8.3,3.2-13.56,9.07-15.86,17.62c-0.08-0.05-0.12-0.07-0.15-0.1
			C1.11,45-1.38,35.74,0.73,25.36c1.57-7.73,5.63-14.01,11.89-18.79c6.68-5.1,14.28-7.22,22.63-6.4c6.81,0.67,12.81,3.33,17.93,7.88
			c5.54,4.93,8.99,11.06,10.31,18.37C63.71,27.65,63.83,28.89,64,30.12z"/>
		<path class="st0" d="M30.12,64c-1.23-0.16-2.48-0.28-3.7-0.5c-5.52-0.99-10.44-3.3-14.78-6.86c-0.13-0.1-0.22-0.35-0.2-0.51
			c1.31-8.29,5.88-14.07,13.75-16.9c7.13-2.56,13.86-1.29,19.81,3.4c4.34,3.42,6.8,8.01,7.54,13.5c0.02,0.17-0.11,0.44-0.25,0.55
			c-5.23,4.23-11.16,6.69-17.89,7.21c-0.18,0.01-0.36,0.07-0.55,0.1C32.62,64,31.37,64,30.12,64z"/>
		<path class="st0" d="M32,11.81c6.16,0,11.16,5.01,11.15,11.17c-0.01,6.16-5.03,11.16-11.18,11.14c-6.14-0.02-11.1-5-11.12-11.14
			C20.84,16.82,25.84,11.81,32,11.81z"/>
	</g>
</g>
</svg>
